HIERARCHY
ROOT Hips
{
    OFFSET 0.000000 0.000000 0.000000
    CHANNELS 6 Xposition Yposition Zposition Zrotation Xrotation Yrotation
    JOINT Spine
    {
        OFFSET -0.000000 14.517291 0.000000
        CHANNELS 3 Zrotation Xrotation Yrotation
        JOINT Spine1
        {
            OFFSET -0.000000 37.558300 0.000000
            CHANNELS 3 Zrotation Xrotation Yrotation
            JOINT Neck
            {
                OFFSET -0.000000 37.404057 3.400369
                CHANNELS 3 Zrotation Xrotation Yrotation
                JOINT Head
                {
                    OFFSET -0.000000 24.785618 -3.540803
                    CHANNELS 3 Zrotation Xrotation Yrotation
                    End Site
                    {
                        OFFSET -0.000000 35.408028 0.000000
                    }
                }
            }
            JOINT LeftShoulder
            {
                OFFSET 6.992933 33.973492 -0.192664
                CHANNELS 3 Zrotation Xrotation Yrotation
                JOINT LeftArm
                {
                    OFFSET 21.527611 0.000000 0.000000
                    CHANNELS 3 Zrotation Xrotation Yrotation
                    JOINT LeftForeArm
                    {
                        OFFSET 56.353916 0.000000 0.000000
                        CHANNELS 3 Zrotation Xrotation Yrotation
                        JOINT LeftHand
                        {
                            OFFSET 47.774071 0.000000 0.000000
                            CHANNELS 3 Zrotation Xrotation Yrotation
                            End Site
                            {
                                OFFSET 26.556021 0.000000 0.000000
                            }
                        }
                    }
                }
            }
            JOINT RightShoulder
            {
                OFFSET -7.065357 33.973492 -0.192664
                CHANNELS 3 Zrotation Xrotation Yrotation
                JOINT RightArm
                {
                    OFFSET -21.527611 0.000000 0.000000
                    CHANNELS 3 Zrotation Xrotation Yrotation
                    JOINT RightForeArm
                    {
                        OFFSET -56.353916 0.000000 0.000000
                        CHANNELS 3 Zrotation Xrotation Yrotation
                        JOINT RightHand
                        {
                            OFFSET -47.774071 0.000000 0.000000
                            CHANNELS 3 Zrotation Xrotation Yrotation
                            End Site
                            {
                                OFFSET -26.556021 0.000000 0.000000
                            }
                        }
                    }
                }
            }
        }
    }
    JOINT LeftUpLeg
    {
        OFFSET 17.704014 0.000000 0.000000
        CHANNELS 3 Zrotation Xrotation Yrotation
        JOINT LeftLeg
        {
            OFFSET -0.000000 -81.181816 0.000000
            CHANNELS 3 Zrotation Xrotation Yrotation
            JOINT LeftFoot
            {
                OFFSET -0.000000 -62.821102 0.000000
                CHANNELS 3 Zrotation Xrotation Yrotation
                JOINT LeftToeBase
                {
                    OFFSET -0.000000 -11.507608 26.556021
                    CHANNELS 3 Zrotation Xrotation Yrotation
                    End Site
                    {
                        OFFSET -0.000000 0.000000 7.081605
                    }
                }
            }
        }
    }
    JOINT RightUpLeg
    {
        OFFSET -17.704014 0.000000 0.000000
        CHANNELS 3 Zrotation Xrotation Yrotation
        JOINT RightLeg
        {
            OFFSET -0.000000 -81.181816 0.000000
            CHANNELS 3 Zrotation Xrotation Yrotation
            JOINT RightFoot
            {
                OFFSET -0.000000 -62.821102 0.000000
                CHANNELS 3 Zrotation Xrotation Yrotation
                JOINT RightToeBase
                {
                    OFFSET -0.000000 -11.507608 26.556021
                    CHANNELS 3 Zrotation Xrotation Yrotation
                    End Site
                    {
                        OFFSET -0.000000 0.000000 7.081605
                    }
                }
            }
        }
    }
}
MOTION
Frames:    5
Frame Time:    0.008333
19.026608    151.732178    -109.578850    1.850164    -9.091475    34.246346    -3.503544    1.531891    -5.725113    -0.595019    4.598518    -1.900282    3.560744    1.605616    -13.170986    11.187211    8.824067    -13.490017    5.960462    9.005773    -23.840630    -27.139479    23.662783    -52.698421    3.993591    -25.367748    -98.483078    4.727261    -21.497955    -10.130272    -2.388552    4.013093    -4.646879    32.251228    -12.275147    60.611294    -20.868746    -13.514939    68.033745    -11.199700    -2.937510    35.639339    16.251417    -1.269228    2.191685    -17.625433    44.192120    -14.208198    10.472703    -32.023869    46.765934    0.000000    0.000000    0.000000    -19.152422    -17.969032    -9.012827    14.329028    34.331520    -14.133478    9.671882    1.508495    -16.550323    0.000000    0.000000    0.000000    
18.798599    151.813675    -109.439133    1.854065    -9.099369    34.948711    -3.608470    1.536557    -5.698668    -0.498918    4.621212    -1.895720    3.464362    1.684244    -13.535736    11.457275    8.842212    -13.841401    6.014499    8.951256    -23.822956    -27.090681    23.701456    -52.819942    3.793172    -24.909992    -98.820564    4.713398    -21.218237    -10.122794    -2.345611    3.993053    -4.698162    32.083981    -12.468016    60.133095    -20.934980    -13.596347    67.919914    -11.345201    -3.071676    35.814373    16.425354    -1.492116    1.823202    -17.531668    44.120556    -14.450173    10.274811    -31.903355    46.587341    0.000000    0.000000    0.000000    -19.161747    -17.734625    -9.078732    14.467739    34.350899    -14.265648    9.766434    1.345881    -16.951857    0.000000    0.000000    0.000000    
18.590555    151.884644    -109.308670    1.880576    -9.062781    35.698654    -3.742910    1.518201    -5.698932    -0.420725    4.644066    -1.899328    3.467193    1.883142    -13.760442    11.634152    8.626466    -14.037608    6.048481    9.011489    -23.843184    -26.925459    23.667410    -52.967388    3.460886    -24.536091    -99.240982    4.682810    -21.166977    -10.143255    -2.309187    3.943534    -4.729843    32.000996    -12.736885    59.566856    -20.893356    -13.583688    67.990906    -11.214096    -3.035577    35.901291    16.529648    -1.763391    1.446924    -17.388798    44.067913    -14.720179    10.097970    -31.766596    46.404812    0.000000    0.000000    0.000000    -19.222832    -17.524664    -9.357617    14.461820    34.452824    -14.369263    9.871325    1.189115    -17.189039    0.000000    0.000000    0.000000    
18.376318    151.961288    -109.180557    1.898649    -9.057528    36.422970    -3.811628    1.540396    -5.686966    -0.400148    4.630296    -1.896733    3.388201    2.057255    -14.057495    11.925401    8.515645    -14.302604    6.084432    9.039615    -23.870405    -26.806477    23.640108    -53.045715    3.232302    -24.079987    -99.626900    4.815416    -20.934271    -10.050200    -2.260200    3.922765    -4.751683    31.851776    -12.931691    59.009815    -21.003670    -13.640718    67.954300    -11.274142    -3.051367    35.954147    16.662228    -2.013210    1.055941    -17.286476    44.010483    -14.955719    9.903975    -31.639860    46.239998    0.000000    0.000000    0.000000    -19.238592    -17.302519    -9.582291    14.456367    34.528362    -14.476007    9.996415    1.050185    -17.455555    0.000000    0.000000    0.000000    
18.163343    152.035217    -109.058365    1.920363    -9.067677    37.145821    -3.817864    1.642805    -5.669909    -0.428177    4.556152    -1.891312    3.291458    2.135555    -14.358625    12.192094    8.490696    -14.583118    6.145527    9.095685    -23.811354    -26.602596    23.663792    -53.225719    2.930041    -23.745216    -100.087860    4.776157    -20.897339    -10.052245    -2.259979    3.922212    -4.880640    31.773695    -13.087814    58.552906    -21.125381    -13.730318    67.940208    -11.209852    -3.042865    35.978180    16.793028    -2.237900    0.477979    -17.330885    43.869625    -14.959601    9.721298    -31.519823    46.061172    0.000000    0.000000    0.000000    -19.252501    -17.060097    -9.827567    14.456021    34.592453    -14.580666    10.097589    0.919387    -17.697256    0.000000    0.000000    0.000000    
